<svg width="25" height="26" viewBox="0 0 25 26" fill="none" xmlns="http://www.w3.org/2000/svg">
<mask id="mask0_895_3600" style="mask-type:alpha" maskUnits="userSpaceOnUse" x="0" y="0" width="25" height="26">
<rect width="24.8354" height="24.8354" transform="matrix(-1 0 0 1 24.835 0.248596)" fill="#D9D9D9"/>
</mask>
<g mask="url(#mask0_895_3600)">
<path d="M21.1616 12.6663L13.5558 20.2721C13.2971 20.5308 13.172 20.8327 13.1806 21.1776C13.1893 21.5225 13.3229 21.8244 13.5816 22.0831C13.8403 22.3418 14.1421 22.4711 14.4871 22.4711C14.832 22.4711 15.1338 22.3418 15.3925 22.0831L23.3606 14.1409C23.5675 13.9339 23.7227 13.7011 23.8262 13.4424C23.9297 13.1837 23.9814 12.925 23.9814 12.6663C23.9814 12.4076 23.9297 12.1489 23.8262 11.8902C23.7227 11.6315 23.5675 11.3987 23.3606 11.1917L15.3925 3.22368C15.1338 2.96498 14.8277 2.83994 14.4741 2.84856C14.1206 2.85719 13.8145 2.99085 13.5558 3.24955C13.2971 3.50825 13.1677 3.81007 13.1677 4.15501C13.1677 4.49994 13.2971 4.80176 13.5558 5.06046L21.1616 12.6663Z" fill="#2C2CC5"/>
</g>
</svg>
